<?xml version="1.0" encoding="UTF-8" standalone="no"?>
<!-- Created with Inkscape (http://www.inkscape.org/) -->

<svg
   xmlns:dc="http://purl.org/dc/elements/1.1/"
   xmlns:cc="http://creativecommons.org/ns#"
   xmlns:rdf="http://www.w3.org/1999/02/22-rdf-syntax-ns#"
   xmlns:svg="http://www.w3.org/2000/svg"
   xmlns="http://www.w3.org/2000/svg"
   xmlns:sodipodi="http://sodipodi.sourceforge.net/DTD/sodipodi-0.dtd"
   xmlns:inkscape="http://www.inkscape.org/namespaces/inkscape"
   width="500"
   height="500"
   viewBox="0 0 500.00001 500.00001"
   id="svg2"
   version="1.1"
   inkscape:version="0.91 r13725"
   sodipodi:docname="cims-logo-1.svg">
  <defs
     id="defs4" />
  <sodipodi:namedview
     id="base"
     pagecolor="#ffffff"
     bordercolor="#666666"
     borderopacity="1.0"
     inkscape:pageopacity="0.0"
     inkscape:pageshadow="2"
     inkscape:zoom="1.4142136"
     inkscape:cx="201.23747"
     inkscape:cy="230.05102"
     inkscape:document-units="px"
     inkscape:current-layer="g4233"
     showgrid="false"
     units="px"
     inkscape:snap-text-baseline="false"
     showguides="false"
     inkscape:guide-bbox="true"
     inkscape:window-width="1879"
     inkscape:window-height="1062"
     inkscape:window-x="41"
     inkscape:window-y="18"
     inkscape:window-maximized="1">
    <sodipodi:guide
       position="107.5,360.00001"
       orientation="0,1"
       id="guide4172" />
    <sodipodi:guide
       position="147.5,146.5"
       orientation="0,1"
       id="guide4174" />
    <sodipodi:guide
       position="150,207"
       orientation="1,0"
       id="guide4176" />
    <sodipodi:guide
       position="359.50001,146.5"
       orientation="1,0"
       id="guide4178" />
    <sodipodi:guide
       position="-41.000001,395.00001"
       orientation="0,1"
       id="guide4180" />
    <sodipodi:guide
       position="42.500001,112"
       orientation="0,1"
       id="guide4182" />
    <sodipodi:guide
       position="255.5,266"
       orientation="1,0"
       id="guide4184" />
  </sodipodi:namedview>
  <metadata
     id="metadata7">
    <rdf:RDF>
      <cc:Work
         rdf:about="">
        <dc:format>image/svg+xml</dc:format>
        <dc:type
           rdf:resource="http://purl.org/dc/dcmitype/StillImage" />
        <dc:title />
      </cc:Work>
    </rdf:RDF>
  </metadata>
  <g
     inkscape:label="Layer 1"
     inkscape:groupmode="layer"
     id="layer1"
     transform="translate(0,-552.36216)">
    <g
       transform="scale(1.048613,0.95364068)"
       style="font-style:normal;font-weight:normal;font-size:295.46069336px;line-height:125%;font-family:sans-serif;letter-spacing:0px;word-spacing:0px;fill:#008000;fill-opacity:1;stroke:none;stroke-width:1px;stroke-linecap:butt;stroke-linejoin:miter;stroke-opacity:1"
       id="text4142">
      <g
         id="g4233"
         transform="matrix(1.7325,0,0,1.7325,-181.99938,-609.39552)">
        <path
           inkscape:connector-curvature="0"
           id="path4166"
           d="m 228.74672,730.42987 29.14212,0 0,215.392 -29.14212,0 0,-215.392 z" />
        <path
           inkscape:connector-curvature="0"
           id="path4168"
           d="m 243.46205,750.05031 q -31.73895,0 -50.49378,23.65994 -18.61057,23.65993 -18.61057,64.48776 0,40.68355 18.61057,64.34349 18.75483,23.65993 50.49378,23.65993 31.73894,0 50.20523,-23.65993 18.61056,-23.65994 18.61056,-64.34349 0,-40.82783 -18.61056,-64.48776 -18.46629,-23.65994 -50.20523,-23.65994 z m 0,-23.65994 q 45.30012,0 72.42249,30.44053 27.12237,30.29626 27.12237,81.36711 0,50.92657 -27.12237,81.3671 -27.12237,30.29626 -72.42249,30.29626 -45.4444,0 -72.71103,-30.29626 -27.12237,-30.29626 -27.12237,-81.3671 0,-51.07085 27.12237,-81.36711 27.26663,-30.44053 72.71103,-30.44053 z" />
        <path
           inkscape:connector-curvature="0"
           id="path4170"
           d="m 341.25981,822.1037 0,32.04434 -112.20151,0 0,-32.04434 112.20151,0 z" />
        <path
           inkscape:connector-curvature="0"
           id="path4190"
           d="m 142.37178,984.81018 c 0,0 35.76152,-36.17714 100.60908,-36.17714 64.84758,0 99.17864,36.17714 99.17864,36.17714 z"
           style="fill:#008000;fill-rule:evenodd;stroke:#008000;stroke-width:1px;stroke-linecap:butt;stroke-linejoin:miter;stroke-opacity:1" />
        <path
           inkscape:connector-curvature="0"
           id="path4192"
           d="m 142.70894,690.52067 c 0,0 24.79465,36.70146 100.60908,36.70146 75.81444,0 99.17864,-36.70146 99.17864,-36.70146 z"
           style="fill:#008000;fill-rule:evenodd;stroke:#008000;stroke-width:1px;stroke-linecap:butt;stroke-linejoin:miter;stroke-opacity:1" />
        <path
           inkscape:connector-curvature="0"
           id="path4192-0"
           d="m 375.41235,728.75006 c 0,0 -33.37743,27.26393 -33.37743,110.62867 0,83.36474 33.37743,109.05577 33.37743,109.05577 z"
           style="font-style:normal;font-weight:normal;font-size:295.46069336px;line-height:125%;font-family:sans-serif;letter-spacing:0px;word-spacing:0px;fill:#008000;fill-opacity:1;fill-rule:evenodd;stroke:#008000;stroke-width:1px;stroke-linecap:butt;stroke-linejoin:miter;stroke-opacity:1" />
        <path
           inkscape:connector-curvature="0"
           id="path4192-0-7"
           d="m 111.09913,727.34981 c 0,0 33.37743,27.26393 33.37743,110.62867 0,83.36474 -33.37743,109.05577 -33.37743,109.05577 z"
           style="font-style:normal;font-weight:normal;font-size:295.46069336px;line-height:125%;font-family:sans-serif;letter-spacing:0px;word-spacing:0px;fill:#008000;fill-opacity:1;fill-rule:evenodd;stroke:#008000;stroke-width:1px;stroke-linecap:butt;stroke-linejoin:miter;stroke-opacity:1" />
      </g>
    </g>
  </g>
</svg>
